<svg width="59" height="29" viewBox="0 0 59 29" fill="none" xmlns="http://www.w3.org/2000/svg">
<path d="M24.648 14.176C25.1387 14.176 25.4907 14.2827 25.704 14.496C25.9387 14.7093 26.056 14.9867 26.056 15.328C26.056 15.8827 25.8853 16.3733 25.544 16.8C25.224 17.2267 24.712 17.4507 24.008 17.472C22.3013 17.5147 20.7867 17.3867 19.464 17.088C17.9493 20.2667 16.1147 22.912 13.96 25.024C11.8267 27.1147 9.68267 28.16 7.528 28.16C5.30933 28.16 3.656 26.8693 2.568 24.288C1.48 21.7067 0.936 18.2187 0.936 13.824C0.936 10.0693 1.20267 6.69867 1.736 3.712C1.928 2.60266 2.19467 1.856 2.536 1.472C2.89867 1.06667 3.50667 0.863998 4.36 0.863998C5.768 0.863998 6.472 1.472 6.472 2.688C6.472 2.816 6.45067 3.05067 6.408 3.392C5.768 7.232 5.448 10.7093 5.448 13.824C5.448 17.088 5.71467 19.5733 6.248 21.28C6.80267 22.9653 7.624 23.808 8.712 23.808C9.82133 23.808 11.0267 23.04 12.328 21.504C13.6293 19.968 14.824 18.0373 15.912 15.712C14.6107 14.9013 13.6293 13.856 12.968 12.576C12.3067 11.2747 11.976 9.78133 11.976 8.096C11.976 6.41067 12.232 4.992 12.744 3.84C13.2773 2.66666 13.992 1.792 14.888 1.216C15.8053 0.639999 16.8187 0.351999 17.928 0.351999C19.2933 0.351999 20.3707 0.842666 21.16 1.824C21.9707 2.80533 22.376 4.14933 22.376 5.856C22.376 8.30933 21.8427 10.9867 20.776 13.888C21.9067 14.08 23.1973 14.176 24.648 14.176ZM15.208 7.872C15.208 9.96267 15.88 11.5093 17.224 12.512C18.056 10.1227 18.472 8.14933 18.472 6.592C18.472 5.696 18.3547 5.04533 18.12 4.64C17.8853 4.21333 17.5653 4 17.16 4C16.584 4 16.1147 4.34133 15.752 5.024C15.3893 5.68533 15.208 6.63467 15.208 7.872ZM34.9743 1.056C35.5289 1.056 35.9983 1.19466 36.3823 1.472C36.7663 1.728 36.9583 2.048 36.9583 2.432C36.9583 3.11467 36.7449 3.66933 36.3183 4.096C35.8916 4.50133 35.2836 4.704 34.4943 4.704C33.2569 4.704 32.3183 4.71467 31.6783 4.736C31.6356 4.992 31.4436 6.144 31.1023 8.192C30.7183 10.4747 30.4836 11.872 30.3983 12.384L29.7263 16.576C29.2569 19.712 28.8836 22.336 28.6063 24.448C29.0543 24.4267 29.6623 24.416 30.4303 24.416C31.5609 24.416 32.3289 24.5653 32.7343 24.864C33.1396 25.1627 33.3423 25.6107 33.3423 26.208C33.3423 26.7627 33.1183 27.232 32.6703 27.616C32.2436 28 31.6356 28.192 30.8463 28.192C30.3129 28.192 29.4703 28.1707 28.3183 28.128C27.2516 28.0853 26.5476 28.064 26.2063 28.064C24.8623 28.064 23.3903 28.1813 21.7903 28.416C21.0863 28.5227 20.5849 28.576 20.2863 28.576C19.8169 28.576 19.4223 28.448 19.1023 28.192C18.7823 27.936 18.6223 27.5627 18.6223 27.072C18.6223 26.304 18.9636 25.7067 19.6463 25.28C20.3289 24.8533 21.2889 24.6293 22.5263 24.608L24.0303 24.576L24.1263 23.872C24.6383 20.4587 25.0116 18.048 25.2463 16.64L25.9503 12.448C26.3769 9.97333 26.7609 7.424 27.1023 4.8L24.4143 4.832C23.6463 4.832 23.1129 4.71467 22.8143 4.48C22.5369 4.224 22.3983 3.872 22.3983 3.424C22.3983 1.97333 23.4436 1.19467 25.5343 1.088C26.5156 1.04533 27.7103 1.024 29.1183 1.024L34.9743 1.056ZM42.626 28.16C41.3887 28.16 39.9913 28.0533 38.434 27.84C37.5807 27.7333 36.994 27.5093 36.674 27.168C36.354 26.8267 36.2153 26.272 36.258 25.504C36.4073 23.392 36.7593 20.7893 37.314 17.696C37.8687 14.5813 38.5407 11.584 39.33 8.704C39.4793 8.17067 39.778 7.79733 40.226 7.584C40.674 7.37067 41.2607 7.264 41.986 7.264C43.2873 7.264 43.938 7.62667 43.938 8.352C43.938 8.65067 43.874 8.992 43.746 9.376C43.1913 11.0827 42.6367 13.376 42.082 16.256C41.5273 19.1147 41.1327 21.8453 40.898 24.448C41.538 24.512 42.2633 24.544 43.074 24.544C46.8073 24.544 49.5913 23.4133 51.426 21.152C53.282 18.8907 54.21 15.872 54.21 12.096C54.21 9.55733 53.4847 7.59466 52.034 6.208C50.5833 4.82133 48.5353 4.128 45.89 4.128C44.1833 4.128 42.4873 4.39467 40.802 4.928C39.138 5.46133 37.634 6.16533 36.29 7.04C36.0127 7.232 35.714 7.328 35.394 7.328C35.0313 7.328 34.7433 7.17867 34.53 6.88C34.3167 6.56 34.21 6.176 34.21 5.728C34.21 5.216 34.2953 4.8 34.466 4.48C34.6367 4.13867 34.9247 3.82933 35.33 3.552C36.802 2.54933 38.53 1.792 40.514 1.28C42.498 0.746666 44.4073 0.48 46.242 0.48C48.8447 0.48 51.0953 0.938666 52.994 1.856C54.8927 2.752 56.354 4.07467 57.378 5.824C58.402 7.57333 58.914 9.68533 58.914 12.16C58.914 15.3813 58.274 18.1973 56.994 20.608C55.714 22.9973 53.8473 24.8533 51.394 26.176C48.9407 27.4987 46.018 28.16 42.626 28.16Z" fill="#22B16D"/>
</svg>
