<svg width="59" height="30" viewBox="0 0 59 30" fill="none" xmlns="http://www.w3.org/2000/svg">
<path d="M24.648 14.676C25.1387 14.676 25.4907 14.7827 25.704 14.996C25.9387 15.2093 26.056 15.4867 26.056 15.828C26.056 16.3827 25.8853 16.8733 25.544 17.3C25.224 17.7267 24.712 17.9507 24.008 17.972C22.3013 18.0147 20.7867 17.8867 19.464 17.588C17.9493 20.7667 16.1147 23.412 13.96 25.524C11.8267 27.6147 9.68267 28.66 7.528 28.66C5.30933 28.66 3.656 27.3693 2.568 24.788C1.48 22.2067 0.936 18.7187 0.936 14.324C0.936 10.5693 1.20267 7.19867 1.736 4.212C1.928 3.10266 2.19467 2.356 2.536 1.972C2.89867 1.56667 3.50667 1.364 4.36 1.364C5.768 1.364 6.472 1.972 6.472 3.188C6.472 3.316 6.45067 3.55067 6.408 3.892C5.768 7.732 5.448 11.2093 5.448 14.324C5.448 17.588 5.71467 20.0733 6.248 21.78C6.80267 23.4653 7.624 24.308 8.712 24.308C9.82133 24.308 11.0267 23.54 12.328 22.004C13.6293 20.468 14.824 18.5373 15.912 16.212C14.6107 15.4013 13.6293 14.356 12.968 13.076C12.3067 11.7747 11.976 10.2813 11.976 8.596C11.976 6.91067 12.232 5.492 12.744 4.34C13.2773 3.16666 13.992 2.292 14.888 1.716C15.8053 1.14 16.8187 0.851999 17.928 0.851999C19.2933 0.851999 20.3707 1.34267 21.16 2.324C21.9707 3.30533 22.376 4.64933 22.376 6.356C22.376 8.80933 21.8427 11.4867 20.776 14.388C21.9067 14.58 23.1973 14.676 24.648 14.676ZM15.208 8.372C15.208 10.4627 15.88 12.0093 17.224 13.012C18.056 10.6227 18.472 8.64933 18.472 7.092C18.472 6.196 18.3547 5.54533 18.12 5.14C17.8853 4.71333 17.5653 4.5 17.16 4.5C16.584 4.5 16.1147 4.84133 15.752 5.524C15.3893 6.18533 15.208 7.13467 15.208 8.372ZM34.9743 1.556C35.5289 1.556 35.9983 1.69466 36.3823 1.972C36.7663 2.228 36.9583 2.548 36.9583 2.932C36.9583 3.61467 36.7449 4.16933 36.3183 4.596C35.8916 5.00133 35.2836 5.204 34.4943 5.204C33.2569 5.204 32.3183 5.21467 31.6783 5.236C31.6356 5.492 31.4436 6.644 31.1023 8.692C30.7183 10.9747 30.4836 12.372 30.3983 12.884L29.7263 17.076C29.2569 20.212 28.8836 22.836 28.6063 24.948C29.0543 24.9267 29.6623 24.916 30.4303 24.916C31.5609 24.916 32.3289 25.0653 32.7343 25.364C33.1396 25.6627 33.3423 26.1107 33.3423 26.708C33.3423 27.2627 33.1183 27.732 32.6703 28.116C32.2436 28.5 31.6356 28.692 30.8463 28.692C30.3129 28.692 29.4703 28.6707 28.3183 28.628C27.2516 28.5853 26.5476 28.564 26.2063 28.564C24.8623 28.564 23.3903 28.6813 21.7903 28.916C21.0863 29.0227 20.5849 29.076 20.2863 29.076C19.8169 29.076 19.4223 28.948 19.1023 28.692C18.7823 28.436 18.6223 28.0627 18.6223 27.572C18.6223 26.804 18.9636 26.2067 19.6463 25.78C20.3289 25.3533 21.2889 25.1293 22.5263 25.108L24.0303 25.076L24.1263 24.372C24.6383 20.9587 25.0116 18.548 25.2463 17.14L25.9503 12.948C26.3769 10.4733 26.7609 7.924 27.1023 5.3L24.4143 5.332C23.6463 5.332 23.1129 5.21467 22.8143 4.98C22.5369 4.724 22.3983 4.372 22.3983 3.924C22.3983 2.47333 23.4436 1.69467 25.5343 1.588C26.5156 1.54533 27.7103 1.524 29.1183 1.524L34.9743 1.556ZM42.626 28.66C41.3887 28.66 39.9913 28.5533 38.434 28.34C37.5807 28.2333 36.994 28.0093 36.674 27.668C36.354 27.3267 36.2153 26.772 36.258 26.004C36.4073 23.892 36.7593 21.2893 37.314 18.196C37.8687 15.0813 38.5407 12.084 39.33 9.204C39.4793 8.67067 39.778 8.29733 40.226 8.084C40.674 7.87067 41.2607 7.764 41.986 7.764C43.2873 7.764 43.938 8.12667 43.938 8.852C43.938 9.15067 43.874 9.492 43.746 9.876C43.1913 11.5827 42.6367 13.876 42.082 16.756C41.5273 19.6147 41.1327 22.3453 40.898 24.948C41.538 25.012 42.2633 25.044 43.074 25.044C46.8073 25.044 49.5913 23.9133 51.426 21.652C53.282 19.3907 54.21 16.372 54.21 12.596C54.21 10.0573 53.4847 8.09466 52.034 6.708C50.5833 5.32133 48.5353 4.628 45.89 4.628C44.1833 4.628 42.4873 4.89467 40.802 5.428C39.138 5.96133 37.634 6.66533 36.29 7.54C36.0127 7.732 35.714 7.828 35.394 7.828C35.0313 7.828 34.7433 7.67867 34.53 7.38C34.3167 7.06 34.21 6.676 34.21 6.228C34.21 5.716 34.2953 5.3 34.466 4.98C34.6367 4.63867 34.9247 4.32933 35.33 4.052C36.802 3.04933 38.53 2.292 40.514 1.78C42.498 1.24667 44.4073 0.98 46.242 0.98C48.8447 0.98 51.0953 1.43867 52.994 2.356C54.8927 3.252 56.354 4.57467 57.378 6.324C58.402 8.07333 58.914 10.1853 58.914 12.66C58.914 15.8813 58.274 18.6973 56.994 21.108C55.714 23.4973 53.8473 25.3533 51.394 26.676C48.9407 27.9987 46.018 28.66 42.626 28.66Z" fill="#5B80C2"/>
</svg>
